<svg width="128" height="22" viewBox="0 0 128 22" fill="none" xmlns="http://www.w3.org/2000/svg">
<path d="M33.2741 8.87074C33.241 8.50615 33.0935 8.22277 32.8317 8.0206C32.5732 7.8151 32.2036 7.71236 31.723 7.71236C31.4048 7.71236 31.1397 7.75379 30.9276 7.83665C30.7154 7.91951 30.5563 8.03385 30.4503 8.17969C30.3442 8.32221 30.2895 8.48627 30.2862 8.67188C30.2796 8.82434 30.3094 8.95857 30.3757 9.07457C30.4453 9.19058 30.5447 9.29332 30.674 9.38281C30.8066 9.46899 30.9657 9.54522 31.1513 9.61151C31.3369 9.67779 31.5457 9.7358 31.7777 9.78551L32.6527 9.98438C33.1565 10.0938 33.6006 10.2396 33.9851 10.4219C34.3729 10.6042 34.6977 10.8213 34.9595 11.0732C35.2247 11.325 35.4252 11.6151 35.5611 11.9432C35.697 12.2713 35.7666 12.6392 35.7699 13.0469C35.7666 13.6899 35.6042 14.2417 35.2827 14.7024C34.9612 15.1631 34.4988 15.5161 33.8956 15.7614C33.2957 16.0066 32.5715 16.1293 31.723 16.1293C30.8712 16.1293 30.1288 16.0017 29.4957 15.7464C28.8627 15.4912 28.3705 15.1035 28.0192 14.5831C27.6679 14.0627 27.4872 13.4048 27.4773 12.6094H29.8338C29.8537 12.9375 29.9415 13.2109 30.0973 13.4297C30.2531 13.6484 30.4669 13.8142 30.7386 13.9268C31.0137 14.0395 31.3319 14.0959 31.6932 14.0959C32.0246 14.0959 32.3063 14.0511 32.5384 13.9616C32.7737 13.8722 32.9543 13.7479 33.0803 13.5888C33.2062 13.4297 33.2708 13.2474 33.2741 13.0419C33.2708 12.8497 33.2112 12.6856 33.0952 12.5497C32.9792 12.4105 32.8002 12.2912 32.5582 12.1918C32.3196 12.089 32.0147 11.9946 31.6435 11.9084L30.5795 11.6598C29.6979 11.4576 29.0036 11.1312 28.4964 10.6804C27.9893 10.2263 27.7375 9.61316 27.7408 8.84091C27.7375 8.21117 27.9065 7.65933 28.2479 7.18537C28.5893 6.71141 29.0616 6.34186 29.6648 6.0767C30.268 5.81155 30.9557 5.67898 31.728 5.67898C32.5168 5.67898 33.2012 5.81321 33.7812 6.08168C34.3646 6.34683 34.817 6.7197 35.1385 7.20028C35.46 7.68087 35.6241 8.23769 35.6307 8.87074H33.2741ZM39.1655 16.1293C38.6783 16.1293 38.2457 16.0481 37.8679 15.8857C37.4934 15.7199 37.1967 15.4714 36.978 15.1399C36.7625 14.8052 36.6548 14.3859 36.6548 13.8821C36.6548 13.4579 36.7294 13.0999 36.8786 12.8082C37.0277 12.5166 37.2332 12.2796 37.495 12.0973C37.7569 11.915 38.0585 11.7775 38.3999 11.6847C38.7412 11.5885 39.1058 11.5239 39.4936 11.4908C39.9278 11.451 40.2775 11.4096 40.5426 11.3665C40.8078 11.3201 41 11.2554 41.1193 11.1726C41.242 11.0864 41.3033 10.9654 41.3033 10.8097V10.7848C41.3033 10.5296 41.2154 10.3324 41.0398 10.1932C40.8641 10.054 40.6271 9.98438 40.3288 9.98438C40.0073 9.98438 39.7488 10.054 39.5533 10.1932C39.3577 10.3324 39.2334 10.5246 39.1804 10.7699L36.9382 10.6903C37.0045 10.2263 37.1752 9.81203 37.4503 9.44744C37.7287 9.07955 38.1098 8.79119 38.5938 8.58239C39.081 8.37027 39.666 8.2642 40.3487 8.2642C40.8359 8.2642 41.285 8.32221 41.696 8.43821C42.107 8.5509 42.465 8.71662 42.7699 8.93537C43.0748 9.1508 43.3101 9.41596 43.4759 9.73082C43.6449 10.0457 43.7294 10.4053 43.7294 10.8097V16H41.4425V14.9361H41.3828C41.2469 15.1946 41.0729 15.4134 40.8608 15.5923C40.652 15.7713 40.4051 15.9055 40.12 15.995C39.8383 16.0845 39.5201 16.1293 39.1655 16.1293ZM39.9162 14.5384C40.178 14.5384 40.4134 14.4853 40.6222 14.3793C40.8343 14.2732 41.0033 14.1274 41.1293 13.9418C41.2552 13.7528 41.3182 13.5341 41.3182 13.2855V12.5597C41.2486 12.5961 41.1641 12.6293 41.0646 12.6591C40.9685 12.6889 40.8625 12.7171 40.7464 12.7436C40.6304 12.7701 40.5111 12.7933 40.3885 12.8132C40.2659 12.8331 40.1482 12.8513 40.0355 12.8679C39.8068 12.9044 39.6113 12.9607 39.4489 13.0369C39.2898 13.1132 39.1671 13.2126 39.081 13.3352C38.9981 13.4545 38.9567 13.5971 38.9567 13.7628C38.9567 14.0147 39.0462 14.2069 39.2251 14.3395C39.4074 14.4721 39.6378 14.5384 39.9162 14.5384ZM47.647 5.81818V16H45.2159V5.81818H47.647ZM52.764 16.1442C51.9653 16.1442 51.2759 15.9867 50.6958 15.6719C50.1191 15.3537 49.675 14.9013 49.3635 14.3146C49.0552 13.7247 48.9011 13.0237 48.9011 12.2116C48.9011 11.4228 49.0569 10.7334 49.3684 10.1435C49.68 9.55019 50.1191 9.08949 50.6859 8.76136C51.2527 8.42992 51.9205 8.2642 52.6895 8.2642C53.233 8.2642 53.7302 8.34872 54.1809 8.51776C54.6317 8.68679 55.0211 8.93703 55.3493 9.26847C55.6774 9.59991 55.9326 10.0092 56.1149 10.4964C56.2972 10.9804 56.3883 11.5355 56.3883 12.1619V12.7685H49.7512V11.3565H54.1262C54.1229 11.098 54.0616 10.8677 53.9423 10.6655C53.823 10.4633 53.6589 10.3059 53.4501 10.1932C53.2446 10.0772 53.0076 10.0192 52.7392 10.0192C52.4674 10.0192 52.2238 10.0805 52.0083 10.2031C51.7929 10.3224 51.6222 10.4865 51.4963 10.6953C51.3703 10.9008 51.304 11.1345 51.2974 11.3963V12.8331C51.2974 13.1446 51.3587 13.4181 51.4814 13.6534C51.604 13.8854 51.778 14.0661 52.0034 14.1953C52.2288 14.3246 52.4972 14.3892 52.8088 14.3892C53.0242 14.3892 53.2198 14.3594 53.3954 14.2997C53.5711 14.2401 53.7219 14.1522 53.8478 14.0362C53.9738 13.9202 54.0682 13.7777 54.1312 13.6087L56.3635 13.6733C56.2707 14.1738 56.0668 14.6096 55.752 14.9808C55.4404 15.3487 55.0311 15.6354 54.524 15.8409C54.0169 16.0431 53.4302 16.1442 52.764 16.1442ZM67.2401 10.9091C67.2401 12.0294 67.0246 12.9789 66.5938 13.7578C66.1629 14.5367 65.5795 15.1283 64.8438 15.5327C64.1113 15.937 63.2893 16.1392 62.3778 16.1392C61.4631 16.1392 60.6394 15.9354 59.907 15.5277C59.1745 15.12 58.5928 14.5284 58.1619 13.7528C57.7344 12.974 57.5206 12.026 57.5206 10.9091C57.5206 9.78883 57.7344 8.83925 58.1619 8.06037C58.5928 7.28149 59.1745 6.68987 59.907 6.28551C60.6394 5.88115 61.4631 5.67898 62.3778 5.67898C63.2893 5.67898 64.1113 5.88115 64.8438 6.28551C65.5795 6.68987 66.1629 7.28149 66.5938 8.06037C67.0246 8.83925 67.2401 9.78883 67.2401 10.9091ZM64.7244 10.9091C64.7244 10.2462 64.63 9.68608 64.4411 9.22869C64.2554 8.77131 63.987 8.42495 63.6357 8.18963C63.2876 7.95431 62.8684 7.83665 62.3778 7.83665C61.8906 7.83665 61.4714 7.95431 61.12 8.18963C60.7687 8.42495 60.4986 8.77131 60.3097 9.22869C60.1241 9.68608 60.0312 10.2462 60.0312 10.9091C60.0312 11.572 60.1241 12.1321 60.3097 12.5895C60.4986 13.0469 60.7687 13.3932 61.12 13.6286C61.4714 13.8639 61.8906 13.9815 62.3778 13.9815C62.8684 13.9815 63.2876 13.8639 63.6357 13.6286C63.987 13.3932 64.2554 13.0469 64.4411 12.5895C64.63 12.1321 64.7244 11.572 64.7244 10.9091ZM68.6768 16V8.36364H71.0384V9.75568H71.1179C71.2571 9.25189 71.4841 8.87737 71.799 8.6321C72.1139 8.38352 72.4801 8.25923 72.8977 8.25923C73.0104 8.25923 73.1264 8.26752 73.2457 8.28409C73.3651 8.29735 73.4761 8.31889 73.5788 8.34872V10.4616C73.4628 10.4219 73.3104 10.3904 73.1214 10.3672C72.9358 10.344 72.7701 10.3324 72.6243 10.3324C72.3359 10.3324 72.0758 10.397 71.8438 10.5263C71.6151 10.6522 71.4344 10.8295 71.3018 11.0582C71.1726 11.2836 71.108 11.5488 71.108 11.8537V16H68.6768ZM83.8116 9.5071H81.3258C81.2927 9.25189 81.2247 9.02154 81.122 8.81605C81.0192 8.61056 80.8833 8.4349 80.7143 8.28906C80.5453 8.14323 80.3448 8.0322 80.1127 7.95597C79.8841 7.87642 79.6305 7.83665 79.3521 7.83665C78.8583 7.83665 78.4324 7.95762 78.0744 8.19957C77.7198 8.44152 77.4463 8.79119 77.2541 9.24858C77.0652 9.70597 76.9707 10.2595 76.9707 10.9091C76.9707 11.5852 77.0668 12.152 77.2591 12.6094C77.4546 13.0634 77.728 13.4065 78.0794 13.6385C78.434 13.8672 78.8533 13.9815 79.3372 13.9815C79.609 13.9815 79.8559 13.9467 80.0779 13.8771C80.3033 13.8075 80.5005 13.7064 80.6696 13.5739C80.8419 13.438 80.9828 13.2739 81.0922 13.0817C81.2048 12.8861 81.2827 12.6657 81.3258 12.4205L83.8116 12.4354C83.7685 12.8861 83.6376 13.3303 83.4189 13.7678C83.2034 14.2053 82.9068 14.6046 82.5289 14.9659C82.1511 15.3239 81.6904 15.6089 81.1468 15.821C80.6066 16.0331 79.9868 16.1392 79.2875 16.1392C78.3661 16.1392 77.5408 15.937 76.8116 15.5327C76.0858 15.125 75.5124 14.5317 75.0914 13.7528C74.6705 12.974 74.46 12.026 74.46 10.9091C74.46 9.78883 74.6738 8.83925 75.1014 8.06037C75.5289 7.28149 76.1073 6.68987 76.8365 6.28551C77.5656 5.88115 78.3826 5.67898 79.2875 5.67898C79.9039 5.67898 80.474 5.76515 80.9977 5.9375C81.5214 6.10653 81.9821 6.35511 82.3798 6.68324C82.7775 7.00805 83.1007 7.40743 83.3493 7.88139C83.5978 8.35535 83.752 8.89725 83.8116 9.5071ZM87.6509 11.6449V16H85.2198V5.81818H87.5714V9.76562H87.6559C87.8282 9.29498 88.11 8.92708 88.5011 8.66193C88.8955 8.39678 89.3777 8.2642 89.9478 8.2642C90.4847 8.2642 90.9521 8.38352 91.3498 8.62216C91.7475 8.85748 92.0558 9.19058 92.2745 9.62145C92.4966 10.0523 92.6059 10.5561 92.6026 11.1328V16H90.1715V11.6101C90.1748 11.1858 90.0688 10.8544 89.8533 10.6158C89.6379 10.3771 89.3346 10.2578 88.9435 10.2578C88.6883 10.2578 88.463 10.3142 88.2674 10.4268C88.0752 10.5362 87.9244 10.6937 87.815 10.8991C87.7089 11.1046 87.6542 11.3532 87.6509 11.6449ZM96.2729 16.1293C95.7857 16.1293 95.3532 16.0481 94.9753 15.8857C94.6008 15.7199 94.3042 15.4714 94.0854 15.1399C93.87 14.8052 93.7623 14.3859 93.7623 13.8821C93.7623 13.4579 93.8368 13.0999 93.986 12.8082C94.1351 12.5166 94.3406 12.2796 94.6025 12.0973C94.8643 11.915 95.1659 11.7775 95.5073 11.6847C95.8487 11.5885 96.2132 11.5239 96.601 11.4908C97.0352 11.451 97.3849 11.4096 97.65 11.3665C97.9152 11.3201 98.1074 11.2554 98.2267 11.1726C98.3494 11.0864 98.4107 10.9654 98.4107 10.8097V10.7848C98.4107 10.5296 98.3229 10.3324 98.1472 10.1932C97.9715 10.054 97.7346 9.98438 97.4363 9.98438C97.1148 9.98438 96.8562 10.054 96.6607 10.1932C96.4651 10.3324 96.3409 10.5246 96.2878 10.7699L94.0456 10.6903C94.1119 10.2263 94.2826 9.81203 94.5577 9.44744C94.8361 9.07955 95.2173 8.79119 95.7012 8.58239C96.1884 8.37027 96.7734 8.2642 97.4561 8.2642C97.9434 8.2642 98.3925 8.32221 98.8034 8.43821C99.2144 8.5509 99.5724 8.71662 99.8773 8.93537C100.182 9.1508 100.418 9.41596 100.583 9.73082C100.752 10.0457 100.837 10.4053 100.837 10.8097V16H98.5499V14.9361H98.4902C98.3543 15.1946 98.1803 15.4134 97.9682 15.5923C97.7594 15.7713 97.5125 15.9055 97.2275 15.995C96.9457 16.0845 96.6275 16.1293 96.2729 16.1293ZM97.0236 14.5384C97.2855 14.5384 97.5208 14.4853 97.7296 14.3793C97.9417 14.2732 98.1107 14.1274 98.2367 13.9418C98.3626 13.7528 98.4256 13.5341 98.4256 13.2855V12.5597C98.356 12.5961 98.2715 12.6293 98.1721 12.6591C98.0759 12.6889 97.9699 12.7171 97.8539 12.7436C97.7379 12.7701 97.6185 12.7933 97.4959 12.8132C97.3733 12.8331 97.2556 12.8513 97.1429 12.8679C96.9142 12.9044 96.7187 12.9607 96.5563 13.0369C96.3972 13.1132 96.2746 13.2126 96.1884 13.3352C96.1055 13.4545 96.0641 13.5971 96.0641 13.7628C96.0641 14.0147 96.1536 14.2069 96.3326 14.3395C96.5149 14.4721 96.7452 14.5384 97.0236 14.5384ZM104.754 11.6449V16H102.323V8.36364H104.635V9.76562H104.72C104.889 9.2983 105.177 8.93205 105.585 8.6669C105.992 8.39844 106.478 8.2642 107.041 8.2642C107.578 8.2642 108.044 8.38518 108.438 8.62713C108.836 8.86577 109.144 9.20052 109.363 9.63139C109.585 10.0589 109.695 10.5594 109.691 11.1328V16H107.26V11.6101C107.263 11.1858 107.156 10.8544 106.937 10.6158C106.722 10.3771 106.422 10.2578 106.037 10.2578C105.782 10.2578 105.557 10.3142 105.361 10.4268C105.169 10.5362 105.02 10.6937 104.914 10.8991C104.811 11.1046 104.758 11.3532 104.754 11.6449ZM114.756 19.0227C114.03 19.0227 113.409 18.9216 112.892 18.7195C112.375 18.5173 111.969 18.2405 111.674 17.8892C111.379 17.5379 111.201 17.1402 111.142 16.696L113.444 16.5668C113.487 16.7225 113.566 16.8584 113.682 16.9744C113.801 17.0904 113.956 17.1799 114.145 17.2429C114.337 17.3059 114.562 17.3374 114.821 17.3374C115.228 17.3374 115.565 17.2379 115.83 17.0391C116.098 16.8435 116.233 16.5005 116.233 16.0099V14.6676H116.148C116.052 14.9029 115.906 15.1134 115.711 15.299C115.515 15.4846 115.271 15.6304 114.98 15.7365C114.691 15.8426 114.36 15.8956 113.985 15.8956C113.429 15.8956 112.918 15.7663 112.454 15.5078C111.993 15.246 111.624 14.8416 111.346 14.2947C111.07 13.7446 110.933 13.0369 110.933 12.1719C110.933 11.2803 111.075 10.5462 111.36 9.96946C111.645 9.38944 112.018 8.96023 112.479 8.68182C112.943 8.40341 113.442 8.2642 113.975 8.2642C114.377 8.2642 114.72 8.33381 115.005 8.47301C115.293 8.6089 115.53 8.78456 115.716 9C115.901 9.21544 116.042 9.43916 116.138 9.67116H116.208V8.36364H118.629V16.0298C118.629 16.6761 118.467 17.2214 118.142 17.6655C117.817 18.1096 117.363 18.446 116.779 18.6747C116.196 18.9067 115.522 19.0227 114.756 19.0227ZM114.831 14.1257C115.126 14.1257 115.377 14.0478 115.586 13.892C115.795 13.7363 115.956 13.5125 116.069 13.2209C116.181 12.9292 116.238 12.5795 116.238 12.1719C116.238 11.7576 116.181 11.4013 116.069 11.103C115.959 10.8014 115.798 10.5694 115.586 10.407C115.377 10.2446 115.126 10.1634 114.831 10.1634C114.529 10.1634 114.274 10.2462 114.065 10.4119C113.856 10.5777 113.697 10.8113 113.588 11.1129C113.482 11.4112 113.429 11.7642 113.429 12.1719C113.429 12.5795 113.483 12.9292 113.593 13.2209C113.702 13.5125 113.859 13.7363 114.065 13.892C114.274 14.0478 114.529 14.1257 114.831 14.1257ZM123.748 16.1442C122.95 16.1442 122.26 15.9867 121.68 15.6719C121.104 15.3537 120.659 14.9013 120.348 14.3146C120.04 13.7247 119.885 13.0237 119.885 12.2116C119.885 11.4228 120.041 10.7334 120.353 10.1435C120.664 9.55019 121.104 9.08949 121.67 8.76136C122.237 8.42992 122.905 8.2642 123.674 8.2642C124.217 8.2642 124.715 8.34872 125.165 8.51776C125.616 8.68679 126.006 8.93703 126.334 9.26847C126.662 9.59991 126.917 10.0092 127.099 10.4964C127.282 10.9804 127.373 11.5355 127.373 12.1619V12.7685H120.736V11.3565H125.111C125.107 11.098 125.046 10.8677 124.927 10.6655C124.807 10.4633 124.643 10.3059 124.434 10.1932C124.229 10.0772 123.992 10.0192 123.724 10.0192C123.452 10.0192 123.208 10.0805 122.993 10.2031C122.777 10.3224 122.607 10.4865 122.481 10.6953C122.355 10.9008 122.288 11.1345 122.282 11.3963V12.8331C122.282 13.1446 122.343 13.4181 122.466 13.6534C122.588 13.8854 122.762 14.0661 122.988 14.1953C123.213 14.3246 123.482 14.3892 123.793 14.3892C124.009 14.3892 124.204 14.3594 124.38 14.2997C124.555 14.2401 124.706 14.1522 124.832 14.0362C124.958 13.9202 125.053 13.7777 125.116 13.6087L127.348 13.6733C127.255 14.1738 127.051 14.6096 126.736 14.9808C126.425 15.3487 126.015 15.6354 125.508 15.8409C125.001 16.0431 124.415 16.1442 123.748 16.1442Z" fill="#06123C"/>
<path d="M11.89 10.1C10.11 9.51 9.25 9.14 9.25 8.2C9.25 7.18 10.36 6.81 11.06 6.81C12.37 6.81 12.85 7.8 12.96 8.15L14.54 7.48C14.39 7.03 13.72 5.56 12 5.24V4H10V5.26C7.52 5.82 7.51 8.12 7.51 8.22C7.51 10.49 9.76 11.13 10.86 11.53C12.44 12.09 13.14 12.6 13.14 13.56C13.14 14.69 12.09 15.17 11.16 15.17C9.34 15.17 8.82 13.3 8.76 13.08L7.1 13.75C7.73 15.94 9.38 16.53 10 16.71V18H12V16.76C12.4 16.67 14.9 16.17 14.9 13.54C14.9 12.15 14.29 10.93 11.89 10.1ZM2 20H0V14H6V16H3.52C5.13 18.41 7.88 20 11 20C13.3869 20 15.6761 19.0518 17.364 17.364C19.0518 15.6761 20 13.3869 20 11H22C22 17.08 17.08 22 11 22C7.28 22 3.99 20.15 2 17.33V20ZM0 11C0 4.92 4.92 0 11 0C14.72 0 18.01 1.85 20 4.67V2H22V8H16V6H18.48C16.87 3.59 14.12 2 11 2C8.61305 2 6.32387 2.94821 4.63604 4.63604C2.94821 6.32387 2 8.61305 2 11H0Z" fill="#FF8C33"/>
</svg>
